# xmcd
#
# Track frame offsets: 
#        150
#        11177
#        20422
#        34592
#        45225
#        59372
#        69270
#        84460
#        98272
#        112020
#        123782
#        136837
#        151392
#        166237
#        177732
#        188922
#        198970
#        212005
#        223390
#        234272
#
# Disc length: 3279 seconds
#
# Revision: 2
# Processed by: cddbd v1.5.1PL2 Copyright (c) Steve Scherf et al.
# Submitted via: ExactAudioCopy v0.95b4
#
DISCID=080ccd14
DTITLE=Frankie Laine - The Best Of Frankie Laine
DYEAR=1999
DGENRE=Western
TTITLE0=High Noon (Do not forsake me)
TTITLE1=Rawhide
TTITLE2=Riders In The Sky
TTITLE3=The Hanging Tree
TTITLE4=Careless Love
TTITLE5=Gunfight At OK Corral
TTITLE6=On The Trail
TTITLE7=Beyond The Blue Horizon
TTITLE8=Serenade
TTITLE9=Mule Train
TTITLE10=The Cry Of The Wild Goose
TTITLE11=Jezebel
TTITLE12=Jealousy
TTITLE13=Along The Navajo Trail
TTITLE14=The 3.10 To Yuma
TTITLE15=I Believe
TTITLE16=Cool Water
TTITLE17=Ace In The Hole
TTITLE18=16 Tons
TTITLE19=Marie
EXTD=
EXTT0=
EXTT1=
EXTT2=
EXTT3=
EXTT4=
EXTT5=
EXTT6=
EXTT7=
EXTT8=
EXTT9=
EXTT10=
EXTT11=
EXTT12=
EXTT13=
EXTT14=
EXTT15=
EXTT16=
EXTT17=
EXTT18=
EXTT19=
PLAYORDER=
